<svg width="100" height="100" xmlns="http://www.w3.org/2000/svg">
 <g>
  <title>Layer 1</title>
  <path transform="rotate(180 50.1286 49.784)" fill-rule="evenodd" clip-rule="evenodd" fill="#3f3f3f" d="m99.116997,31.938l-46.982998,46.982998c-1.181999,1.178001 -3.091999,1.178001 -4.272999,0l-0.945999,-0.948997l-0.003002,0.005997l-1.024998,-1.030998l-4.431999,-4.434998c-0.030003,-0.029999 -0.036003,-0.064003 -0.067001,-0.097l-40.505,-40.658001c-1.178,-1.177999 -1.178,-3.091 0,-4.271999l6.403,-6.406c1.184,-1.177999 3.094999,-1.177999 4.273,0l38.462,38.598001l38.421001,-38.420002c1.178001,-1.177999 3.087997,-1.177999 4.268997,0l6.405998,6.409c1.178001,1.177 1.178001,3.094 0,4.271999z" id="svg_1"/>
 </g>
</svg>